<svg xmlns="http://www.w3.org/2000/svg">
  <defs>
    <symbol id="laufen" viewBox="0 0 24 24" fill="none" stroke="currentColor" stroke-width="2" stroke-linecap="round" stroke-linejoin="round"><circle cx="14.5" cy="4.5" r="2"/><path d="M5 21l4-2 2-5-2-4 5 2 1.5 3H19M14 8l-4 2-4-1"/></symbol>
    <symbol id="gehen" viewBox="0 0 24 24" fill="none" stroke="currentColor" stroke-width="2" stroke-linecap="round" stroke-linejoin="round"><circle cx="12" cy="4" r="2"/><path d="M12 7v5M12 12l-3 8M12 12l3 8M12 8l-3.5 2M12 8l3.5 2"/></symbol>
    <symbol id="wandern" viewBox="0 0 24 24" fill="none" stroke="currentColor" stroke-width="2" stroke-linecap="round" stroke-linejoin="round"><circle cx="12" cy="4" r="2"/><path d="M12 7l-1.5 6 1.5 8M10.5 13 7 21M12 8l3 2.5V21M17.5 11v10"/></symbol>
    <symbol id="rad" viewBox="0 0 24 24" fill="none" stroke="currentColor" stroke-width="2" stroke-linecap="round" stroke-linejoin="round"><circle cx="5.5" cy="17" r="3.5"/><circle cx="18.5" cy="17" r="3.5"/><circle cx="15" cy="5" r="1.5"/><path d="M5.5 17l3.5-7h5l4 7M9 10l3 7M14 10l-1-3h3"/></symbol>
    <symbol id="schwimmen" viewBox="0 0 24 24" fill="none" stroke="currentColor" stroke-width="2" stroke-linecap="round" stroke-linejoin="round"><circle cx="14" cy="7" r="2"/><path d="M4 12l5-3.5L13 12M2 17.5c2-1.6 4-1.6 6 0s4 1.6 6 0 4-1.6 6 0"/></symbol>
    <symbol id="ski" viewBox="0 0 24 24" fill="none" stroke="currentColor" stroke-width="2" stroke-linecap="round" stroke-linejoin="round"><circle cx="15" cy="4" r="2"/><path d="M14 7l-5 5 5 3v5M9 12l-4 4M3 19.5 21 15"/></symbol>
    <symbol id="inline" viewBox="0 0 24 24" fill="none" stroke="currentColor" stroke-width="2" stroke-linecap="round" stroke-linejoin="round"><path d="M4 13h10l5-4M4 13v3.5h12"/><circle cx="7" cy="19.5" r="1.5"/><circle cx="13" cy="19.5" r="1.5"/></symbol>
    <symbol id="tanzen" viewBox="0 0 24 24" fill="none" stroke="currentColor" stroke-width="2" stroke-linecap="round" stroke-linejoin="round"><circle cx="12" cy="4" r="2"/><path d="M12 7l-1.5 5 1 9M11 12l4 8M10.5 9l-4.5.5M13.5 9 18 6.5"/></symbol>
    <symbol id="medaille" viewBox="0 0 24 24" fill="none" stroke="currentColor" stroke-width="2" stroke-linecap="round" stroke-linejoin="round"><circle cx="12" cy="14.5" r="4.5"/><path d="M9.5 10.5 6 3M14.5 10.5 18 3M9 3h6"/></symbol>
    <symbol id="plus" viewBox="0 0 24 24" fill="none" stroke="currentColor" stroke-width="2" stroke-linecap="round" stroke-linejoin="round"><path d="M12 5v14M5 12h14"/></symbol>
    <symbol id="minus" viewBox="0 0 24 24" fill="none" stroke="currentColor" stroke-width="2" stroke-linecap="round" stroke-linejoin="round"><path d="M5 12h14"/></symbol>
    <symbol id="blitz" viewBox="0 0 24 24" fill="none" stroke="currentColor" stroke-width="2" stroke-linecap="round" stroke-linejoin="round"><path d="M13 2 5 14h6l-1 8 8-12h-6l1-8z"/></symbol>
    <symbol id="stift" viewBox="0 0 24 24" fill="none" stroke="currentColor" stroke-width="2" stroke-linecap="round" stroke-linejoin="round"><path d="M17 3l4 4L8 20l-5 1 1-5L17 3z"/></symbol>
    <symbol id="papierkorb" viewBox="0 0 24 24" fill="none" stroke="currentColor" stroke-width="2" stroke-linecap="round" stroke-linejoin="round"><path d="M4 7h16M9 7V4h6v3M6 7l1 14h10l1-14M10 11v6M14 11v6"/></symbol>
    <symbol id="chevron" viewBox="0 0 24 24" fill="none" stroke="currentColor" stroke-width="2" stroke-linecap="round" stroke-linejoin="round"><path d="M6 9l6 6 6-6"/></symbol>
    <symbol id="karte" viewBox="0 0 24 24" fill="none" stroke="currentColor" stroke-width="2" stroke-linecap="round" stroke-linejoin="round"><path d="M9 4 3 6v14l6-2 6 2 6-2V4l-6 2-6-2zM9 4v14M15 6v14"/></symbol>
    <symbol id="fahne" viewBox="0 0 24 24" fill="none" stroke="currentColor" stroke-width="2" stroke-linecap="round" stroke-linejoin="round"><path d="M5 21V4M5 4h13l-3.5 4L18 12H5"/></symbol>
    <symbol id="chart" viewBox="0 0 24 24" fill="none" stroke="currentColor" stroke-width="2" stroke-linecap="round" stroke-linejoin="round"><path d="M3 20h18M4 16l5-5 4 3 7-8"/></symbol>
    <symbol id="zahnrad" viewBox="0 0 24 24" fill="none" stroke="currentColor" stroke-width="2" stroke-linecap="round" stroke-linejoin="round"><circle cx="12" cy="12" r="3.5"/><path d="M12 2v3M12 19v3M2 12h3M19 12h3M4.5 4.5l2 2M17.5 17.5l2 2M19.5 4.5l-2 2M6.5 17.5l-2 2"/></symbol>
    <symbol id="mond" viewBox="0 0 24 24" fill="none" stroke="currentColor" stroke-width="2" stroke-linecap="round" stroke-linejoin="round"><path d="M21 13A9 9 0 1 1 11 3a7 7 0 0 0 10 10z"/></symbol>
    <symbol id="sonne" viewBox="0 0 24 24" fill="none" stroke="currentColor" stroke-width="2" stroke-linecap="round" stroke-linejoin="round"><circle cx="12" cy="12" r="4"/><path d="M12 2v2M12 20v2M2 12h2M20 12h2M4.9 4.9 6.3 6.3M17.7 17.7l1.4 1.4M19.1 4.9l-1.4 1.4M6.3 17.7l-1.4 1.4"/></symbol>
    <symbol id="logout" viewBox="0 0 24 24" fill="none" stroke="currentColor" stroke-width="2" stroke-linecap="round" stroke-linejoin="round"><path d="M9 21H5a2 2 0 0 1-2-2V5a2 2 0 0 1 2-2h4M16 17l5-5-5-5M21 12H9"/></symbol>
    <symbol id="kalender" viewBox="0 0 24 24" fill="none" stroke="currentColor" stroke-width="2" stroke-linecap="round" stroke-linejoin="round"><rect x="3" y="5" width="18" height="16" rx="2"/><path d="M8 3v4M16 3v4M3 10h18"/></symbol>
    <symbol id="uhr" viewBox="0 0 24 24" fill="none" stroke="currentColor" stroke-width="2" stroke-linecap="round" stroke-linejoin="round"><circle cx="12" cy="12" r="9"/><path d="M12 7v5l3 3"/></symbol>
    <symbol id="notiz" viewBox="0 0 24 24" fill="none" stroke="currentColor" stroke-width="2" stroke-linecap="round" stroke-linejoin="round"><path d="M6 2h9l5 5v15H6V2zM14 2v6h6"/></symbol>
    <symbol id="x" viewBox="0 0 24 24" fill="none" stroke="currentColor" stroke-width="2" stroke-linecap="round" stroke-linejoin="round"><path d="M6 6l12 12M18 6 6 18"/></symbol>
    <symbol id="berg" viewBox="0 0 24 24" fill="none" stroke="currentColor" stroke-width="2" stroke-linecap="round" stroke-linejoin="round"><path d="M3 20 10 6l4 7 3-4 4 11H3z"/></symbol>
    <symbol id="pokal" viewBox="0 0 24 24" fill="none" stroke="currentColor" stroke-width="2" stroke-linecap="round" stroke-linejoin="round"><path d="M8 3h8v7a4 4 0 0 1-8 0V3zM8 5H4c0 3 2 5 4 5M16 5h4c0 3-2 5-4 5M12 14v4M8 21h8l-1-3h-6l-1 3z"/></symbol>
  </defs>
</svg>
